<?xml version="1.0" encoding="UTF-8" ?>
<!DOCTYPE svg PUBLIC "-//W3C//DTD SVG 1.1//EN" "http://www.w3.org/Graphics/SVG/1.1/DTD/svg11.dtd">
<svg width="388pt" height="388pt" viewBox="0 0 388 388" version="1.1" xmlns="http://www.w3.org/2000/svg">
<g id="#fe1414ff">
<path fill="#fe1414" opacity="1.00" d=" M 160.17 0.00 L 225.11 0.00 C 229.56 1.03 233.78 4.39 234.46 9.11 C 236.22 20.99 237.76 32.91 239.53 44.79 C 257.04 41.97 274.42 38.37 291.91 35.40 C 296.36 34.89 300.46 31.58 305.07 33.09 C 308.57 33.64 310.68 36.70 313.08 38.97 C 326.06 51.99 339.06 65.00 352.10 77.96 C 356.08 81.75 356.05 88.60 352.73 92.81 C 346.44 101.21 340.08 109.56 333.77 117.95 C 332.88 119.23 331.46 120.82 332.52 122.44 C 336.50 130.82 340.44 139.30 342.89 148.28 C 355.08 150.27 367.37 151.69 379.57 153.63 C 383.58 154.38 385.85 158.01 388.00 161.10 L 388.00 225.03 C 387.01 229.53 383.60 233.66 378.89 234.43 C 370.02 235.75 361.14 237.01 352.26 238.20 C 350.40 238.42 348.55 238.62 346.70 238.81 C 349.24 234.82 352.53 231.39 355.15 227.46 C 346.07 218.16 336.81 209.03 327.89 199.57 C 325.98 201.24 324.15 203.00 322.40 204.84 C 319.47 200.95 316.47 197.13 313.42 193.33 C 294.28 202.27 275.00 210.90 255.78 219.66 C 252.29 221.36 248.72 222.91 245.08 224.27 L 244.94 222.66 C 268.88 208.71 293.31 195.60 317.38 181.87 C 314.33 173.51 309.32 166.03 305.72 157.91 C 300.62 158.96 295.71 160.77 290.62 161.90 C 290.80 161.50 291.17 160.71 291.36 160.31 C 295.48 158.49 299.78 157.12 304.04 155.69 C 301.93 149.94 298.61 144.74 296.07 139.18 C 295.33 138.16 294.80 135.67 293.03 136.80 C 288.93 137.91 284.93 139.38 280.73 140.10 L 281.18 138.70 C 285.11 136.94 289.26 135.71 293.28 134.14 C 290.48 127.89 287.07 121.94 284.00 115.83 C 278.54 116.94 273.30 118.89 267.86 120.08 L 267.93 118.78 C 272.60 116.81 277.41 115.21 282.22 113.65 C 280.27 106.75 275.78 100.91 273.15 94.26 C 268.13 95.24 263.18 96.64 258.42 98.52 C 248.87 102.05 239.09 105.11 229.01 106.69 C 232.27 104.18 236.24 102.90 239.82 100.93 C 246.51 97.73 253.13 94.39 259.81 91.17 C 258.16 85.93 255.99 80.88 254.15 75.71 C 248.76 74.51 243.31 73.46 238.18 71.39 C 244.34 70.77 250.41 72.50 256.47 73.37 C 258.22 78.16 259.65 83.08 261.73 87.75 C 268.24 77.70 271.12 65.75 272.36 53.97 C 266.98 53.56 261.87 51.67 256.59 50.66 C 259.13 52.02 261.63 53.45 263.93 55.19 C 249.85 59.11 235.35 61.44 220.98 64.07 C 217.34 65.13 214.17 62.60 211.02 61.21 C 205.15 58.39 199.62 54.96 194.01 51.69 C 191.24 60.50 190.63 70.61 195.36 78.88 C 200.60 88.18 210.10 93.67 219.19 98.57 C 214.61 98.91 210.39 96.33 206.39 94.40 C 196.85 89.46 190.51 79.56 188.97 69.05 C 185.51 69.12 182.02 69.35 178.67 70.32 C 174.07 77.27 168.71 83.70 163.87 90.50 C 158.41 86.25 153.53 81.30 148.01 77.12 C 124.83 102.60 100.88 127.40 77.81 152.96 C 96.76 170.69 115.64 188.49 134.46 206.35 C 141.10 199.73 146.71 192.13 152.89 185.08 C 146.11 179.09 139.12 173.32 132.62 167.02 C 132.92 166.71 133.52 166.07 133.82 165.75 C 141.37 170.66 148.12 176.70 155.54 181.79 C 160.47 176.36 165.23 170.75 169.74 164.97 C 161.30 156.85 152.03 149.64 143.59 141.53 C 143.91 141.36 144.54 141.03 144.85 140.87 C 154.08 147.48 163.02 154.50 172.09 161.33 C 172.54 161.27 173.46 161.14 173.92 161.08 C 174.29 161.19 175.05 161.42 175.42 161.53 C 165.03 176.29 153.80 190.45 143.13 205.01 C 140.53 208.41 138.13 211.97 135.22 215.11 C 119.02 199.31 102.40 183.95 86.03 168.32 C 78.18 174.16 70.48 180.19 62.63 186.04 C 60.13 180.31 57.62 174.60 55.04 168.91 C 43.40 174.31 31.82 179.84 20.12 185.11 C 24.00 198.47 28.96 211.49 33.17 224.74 C 34.52 229.40 36.78 233.81 37.31 238.68 C 30.24 237.23 23.03 236.59 15.91 235.42 C 12.57 234.80 9.01 234.89 5.91 233.36 C 3.27 232.06 1.64 229.41 0.37 226.88 L 0.00 228.15 L 0.00 162.33 C 1.32 158.14 4.52 154.14 9.09 153.49 C 21.07 151.69 33.11 150.20 45.07 148.27 C 47.69 138.75 51.81 129.71 56.26 120.92 C 50.73 113.15 44.79 105.69 39.15 98.00 C 36.73 94.61 33.32 91.47 32.84 87.11 C 32.64 84.08 33.15 80.67 35.41 78.45 C 49.65 64.24 63.90 50.03 78.08 35.76 C 81.57 32.29 87.51 31.76 91.62 34.44 C 101.61 41.37 110.81 49.51 121.05 56.03 C 129.99 52.08 138.75 47.52 148.28 45.08 C 150.18 33.09 151.72 21.04 153.50 9.03 C 154.06 4.92 157.48 2.06 161.03 0.41 L 160.17 0.00 Z" />
</g>
<g id="#ffffffff">
<path fill="#ffffff" opacity="1.00" d=" M 256.59 50.66 C 261.87 51.67 266.98 53.56 272.36 53.97 C 271.12 65.75 268.24 77.70 261.73 87.75 C 259.65 83.08 258.22 78.16 256.47 73.37 C 250.41 72.50 244.34 70.77 238.18 71.39 C 243.31 73.46 248.76 74.51 254.15 75.71 C 255.99 80.88 258.16 85.93 259.81 91.17 C 253.13 94.39 246.51 97.73 239.82 100.93 C 236.24 102.90 232.27 104.18 229.01 106.69 C 239.09 105.11 248.87 102.05 258.42 98.52 C 263.18 96.64 268.13 95.24 273.15 94.26 C 275.78 100.91 280.27 106.75 282.22 113.65 C 277.41 115.21 272.60 116.81 267.93 118.78 C 263.36 120.73 258.59 122.17 253.92 123.88 C 258.65 122.94 263.19 121.28 267.86 120.08 C 273.30 118.89 278.54 116.94 284.00 115.83 C 287.07 121.94 290.48 127.89 293.28 134.14 C 289.26 135.71 285.11 136.94 281.18 138.70 C 275.54 140.82 269.89 142.91 264.11 144.60 C 265.43 144.56 266.75 144.55 268.06 144.49 C 271.85 142.03 276.56 141.71 280.73 140.10 C 284.93 139.38 288.93 137.91 293.03 136.80 C 294.80 135.67 295.33 138.16 296.07 139.18 C 298.61 144.74 301.93 149.94 304.04 155.69 C 299.78 157.12 295.48 158.49 291.36 160.31 C 286.29 162.36 281.09 164.08 275.93 165.86 C 280.90 164.86 285.70 163.15 290.62 161.90 C 295.71 160.77 300.62 158.96 305.72 157.91 C 309.32 166.03 314.33 173.51 317.38 181.87 C 293.31 195.60 268.88 208.71 244.94 222.66 C 240.12 225.67 234.96 228.10 230.07 230.98 C 235.19 229.01 240.04 226.43 245.08 224.27 C 248.72 222.91 252.29 221.36 255.78 219.66 C 275.00 210.90 294.28 202.27 313.42 193.33 C 316.47 197.13 319.47 200.95 322.40 204.84 C 324.15 203.00 325.98 201.24 327.89 199.57 C 336.81 209.03 346.07 218.16 355.15 227.46 C 352.53 231.39 349.24 234.82 346.70 238.81 C 348.55 238.62 350.40 238.42 352.26 238.20 C 349.89 238.62 347.08 238.46 345.69 240.81 C 343.76 243.51 339.85 244.67 339.26 248.25 C 339.12 248.42 338.84 248.76 338.70 248.94 C 321.16 270.97 304.08 293.37 286.66 315.50 C 282.40 320.50 279.01 326.26 274.28 330.83 C 271.55 331.49 268.73 331.61 265.95 331.79 C 257.42 324.08 249.13 316.11 240.63 308.36 C 237.56 305.35 234.25 302.56 231.54 299.20 C 239.15 290.59 247.62 282.77 255.45 274.35 C 265.12 263.83 275.37 253.86 285.17 243.46 C 289.31 239.33 292.98 234.72 297.50 230.98 C 296.95 230.45 296.40 229.92 295.85 229.40 C 276.35 246.04 256.71 262.52 236.98 278.90 C 233.73 275.93 231.56 271.87 227.91 269.35 C 218.15 263.37 208.32 257.50 198.65 251.38 C 197.44 250.67 196.01 249.65 194.66 250.70 C 186.43 255.08 178.49 260.05 170.16 264.22 C 150.60 263.85 130.99 263.16 111.43 262.37 C 109.83 260.95 108.84 259.00 107.62 257.27 C 95.93 239.60 84.13 222.00 72.35 204.39 L 71.34 204.82 C 81.05 227.28 91.30 249.50 101.27 271.84 C 103.48 274.91 98.79 275.20 96.83 276.06 C 82.84 280.56 68.99 285.55 54.93 289.83 C 53.33 285.11 52.04 280.27 49.94 275.74 C 49.79 275.41 49.48 274.76 49.32 274.43 C 49.17 273.94 48.87 272.97 48.72 272.48 C 48.18 271.18 47.83 269.82 47.30 268.53 C 46.99 267.52 46.68 266.51 46.36 265.50 C 46.01 264.47 45.63 263.45 45.22 262.45 C 45.12 261.95 44.91 260.97 44.81 260.47 C 43.08 255.67 41.35 250.86 40.11 245.90 C 39.68 243.31 38.44 241.01 37.31 238.68 C 36.78 233.81 34.52 229.40 33.17 224.74 C 28.96 211.49 24.00 198.47 20.12 185.11 C 31.82 179.84 43.40 174.31 55.04 168.91 C 57.62 174.60 60.13 180.31 62.63 186.04 C 70.48 180.19 78.18 174.16 86.03 168.32 C 102.40 183.95 119.02 199.31 135.22 215.11 C 138.13 211.97 140.53 208.41 143.13 205.01 C 153.80 190.45 165.03 176.29 175.42 161.53 C 181.16 153.71 186.90 145.87 192.96 138.29 C 191.72 139.63 190.49 140.98 189.26 142.33 C 175.60 132.17 162.47 121.32 148.94 111.01 C 161.45 122.56 174.47 133.56 186.95 145.13 C 182.75 150.57 177.95 155.51 173.92 161.08 C 173.46 161.14 172.54 161.27 172.09 161.33 C 163.02 154.50 154.08 147.48 144.85 140.87 C 140.71 137.90 136.73 134.71 132.75 131.53 C 132.33 131.77 131.94 132.06 131.58 132.41 L 133.27 132.49 C 136.73 135.47 140.21 138.45 143.59 141.53 C 152.03 149.64 161.30 156.85 169.74 164.97 C 165.23 170.75 160.47 176.36 155.54 181.79 C 148.12 176.70 141.37 170.66 133.82 165.75 C 127.11 161.07 121.01 155.55 114.15 151.09 C 120.47 156.20 126.55 161.61 132.62 167.02 C 139.12 173.32 146.11 179.09 152.89 185.08 C 146.71 192.13 141.10 199.73 134.46 206.35 C 115.64 188.49 96.76 170.69 77.81 152.96 C 100.88 127.40 124.83 102.60 148.01 77.12 C 153.53 81.30 158.41 86.25 163.87 90.50 C 168.71 83.70 174.07 77.27 178.67 70.32 C 182.02 69.35 185.51 69.12 188.97 69.05 C 190.51 79.56 196.85 89.46 206.39 94.40 C 210.39 96.33 214.61 98.91 219.19 98.57 C 210.10 93.67 200.60 88.18 195.36 78.88 C 190.63 70.61 191.24 60.50 194.01 51.69 C 199.62 54.96 205.15 58.39 211.02 61.21 C 214.17 62.60 217.34 65.13 220.98 64.07 C 235.35 61.44 249.85 59.11 263.93 55.19 C 261.63 53.45 259.13 52.02 256.59 50.66 M 297.42 228.11 C 297.95 228.54 298.50 228.98 299.04 229.41 C 300.88 225.77 304.85 223.70 306.99 220.17 C 303.99 223.04 300.89 225.83 297.42 228.11 M 60.10 256.97 C 56.03 261.51 58.07 269.13 63.29 271.84 C 68.16 274.83 74.93 272.19 77.14 267.09 C 79.40 262.71 77.19 257.53 73.66 254.56 C 69.27 251.87 63.18 252.70 60.10 256.97 M 263.42 290.67 C 260.55 291.80 257.83 293.90 256.85 296.94 C 255.00 301.77 257.67 307.66 262.53 309.48 C 266.27 311.36 270.44 309.71 273.61 307.47 C 274.97 305.22 276.47 302.78 276.30 300.04 C 276.50 293.73 269.36 288.54 263.42 290.67 Z" />
</g>
<g id="#131313fe">
<path fill="#131313" opacity="1.00" d=" M 148.94 111.01 C 162.47 121.32 175.60 132.17 189.26 142.33 C 190.49 140.98 191.72 139.63 192.96 138.29 C 186.90 145.87 181.16 153.71 175.42 161.53 C 175.05 161.42 174.29 161.19 173.92 161.08 C 177.95 155.51 182.75 150.57 186.95 145.13 C 174.47 133.56 161.45 122.56 148.94 111.01 Z" />
<path fill="#131313" opacity="1.00" d=" M 253.92 123.88 C 258.59 122.17 263.36 120.73 267.93 118.78 L 267.86 120.08 C 263.19 121.28 258.65 122.94 253.92 123.88 Z" />
<path fill="#131313" opacity="1.00" d=" M 131.58 132.41 C 131.94 132.06 132.33 131.77 132.75 131.53 C 136.73 134.71 140.71 137.90 144.85 140.87 C 144.54 141.03 143.91 141.36 143.59 141.53 C 140.21 138.45 136.73 135.47 133.27 132.49 L 131.58 132.41 Z" />
<path fill="#131313" opacity="1.00" d=" M 264.11 144.60 C 269.89 142.91 275.54 140.82 281.18 138.70 L 280.73 140.10 C 276.56 141.71 271.85 142.03 268.06 144.49 C 266.75 144.55 265.43 144.56 264.11 144.60 Z" />
<path fill="#131313" opacity="1.00" d=" M 114.15 151.09 C 121.01 155.55 127.11 161.07 133.82 165.75 C 133.52 166.07 132.92 166.71 132.62 167.02 C 126.55 161.61 120.47 156.20 114.15 151.09 Z" />
<path fill="#131313" opacity="1.00" d=" M 275.93 165.86 C 281.09 164.08 286.29 162.36 291.36 160.31 C 291.17 160.71 290.80 161.50 290.62 161.90 C 285.70 163.15 280.90 164.86 275.93 165.86 Z" />
<path fill="#131313" opacity="1.00" d=" M 297.42 228.11 C 300.89 225.83 303.99 223.04 306.99 220.17 C 304.85 223.70 300.88 225.77 299.04 229.41 C 298.50 228.98 297.95 228.54 297.42 228.11 Z" />
<path fill="#131313" opacity="1.00" d=" M 230.07 230.98 C 234.96 228.10 240.12 225.67 244.94 222.66 L 245.08 224.27 C 240.04 226.43 235.19 229.01 230.07 230.98 Z" />
<path fill="#131313" opacity="1.00" d=" M 60.10 256.97 C 63.18 252.70 69.27 251.87 73.66 254.56 C 77.19 257.53 79.40 262.71 77.14 267.09 C 74.93 272.19 68.16 274.83 63.29 271.84 C 58.07 269.13 56.03 261.51 60.10 256.97 Z" />
<path fill="#131313" opacity="1.00" d=" M 263.42 290.67 C 269.36 288.54 276.50 293.73 276.30 300.04 C 276.47 302.78 274.97 305.22 273.61 307.47 C 270.44 309.71 266.27 311.36 262.53 309.48 C 257.67 307.66 255.00 301.77 256.85 296.94 C 257.83 293.90 260.55 291.80 263.42 290.67 Z" />
</g>
<g id="#3036e6ff">
<path fill="#3036e6" opacity="1.00" d=" M 71.34 204.82 L 72.35 204.39 C 84.13 222.00 95.93 239.60 107.62 257.27 C 108.84 259.00 109.83 260.95 111.43 262.37 C 130.99 263.16 150.60 263.85 170.16 264.22 C 178.49 260.05 186.43 255.08 194.66 250.70 C 196.01 249.65 197.44 250.67 198.65 251.38 C 208.32 257.50 218.15 263.37 227.91 269.35 C 231.56 271.87 233.73 275.93 236.98 278.90 C 256.71 262.52 276.35 246.04 295.85 229.40 C 296.40 229.92 296.95 230.45 297.50 230.98 C 292.98 234.72 289.31 239.33 285.17 243.46 C 275.37 253.86 265.12 263.83 255.45 274.35 C 247.62 282.77 239.15 290.59 231.54 299.20 C 234.25 302.56 237.56 305.35 240.63 308.36 C 249.13 316.11 257.42 324.08 265.95 331.79 C 268.73 331.61 271.55 331.49 274.28 330.83 C 279.01 326.26 282.40 320.50 286.66 315.50 C 304.08 293.37 321.16 270.97 338.70 248.94 C 338.74 255.59 333.67 260.89 332.11 267.10 C 336.36 274.48 342.36 280.80 347.17 287.86 C 350.46 292.73 356.25 297.31 355.03 303.86 C 354.66 308.39 350.84 311.17 347.91 314.14 C 335.45 326.62 322.94 339.06 310.52 351.58 C 306.87 355.63 300.18 356.41 295.76 353.14 C 288.03 347.39 280.37 341.53 272.63 335.79 C 272.19 334.50 271.71 333.24 271.19 331.99 C 268.48 332.25 265.66 332.35 263.16 333.56 C 255.51 337.09 247.79 340.66 239.59 342.74 C 237.61 354.75 236.15 366.84 234.39 378.88 C 233.71 383.58 229.49 386.74 225.18 388.00 L 163.09 388.00 C 158.61 386.96 154.31 383.71 153.60 378.93 C 151.82 366.89 150.36 354.80 148.32 342.80 C 139.82 340.37 131.61 336.98 123.76 332.94 C 122.38 332.33 120.76 331.38 119.46 332.70 C 112.28 337.71 105.50 343.27 98.39 348.38 C 94.19 351.48 89.87 356.18 84.10 354.99 C 79.64 354.60 76.81 350.84 73.88 347.92 C 61.24 335.28 48.63 322.62 35.95 310.03 C 33.46 307.77 32.66 304.20 32.87 300.97 C 33.31 296.84 36.39 293.79 38.74 290.62 C 42.47 285.65 46.14 280.65 49.94 275.74 C 52.04 280.27 53.33 285.11 54.93 289.83 C 68.99 285.55 82.84 280.56 96.83 276.06 C 98.79 275.20 103.48 274.91 101.27 271.84 C 91.30 249.50 81.05 227.28 71.34 204.82 Z" />
</g>
</svg>
